<svg xmlns="http://www.w3.org/2000/svg" xmlns:xlink="http://www.w3.org/1999/xlink" viewBox="0,0,256,256" width="150px" height="150px"><g fill="#ffffff" fill-rule="nonzero" stroke="none" stroke-width="1" stroke-linecap="butt" stroke-linejoin="miter" stroke-miterlimit="10" stroke-dasharray="" stroke-dashoffset="0" font-family="none" font-weight="none" font-size="none" text-anchor="none" style="mix-blend-mode: normal"><g transform="scale(5.12,5.12)"><path d="M24.78125,6.03125l-0.71875,0.84375c-4.01562,4.58203 -5.96875,11.91406 -5.71875,19.15625l0.03125,0.6875l-0.90625,-1.28125c-3.67969,-5.52734 -9.25781,-8.5 -16.28125,-9.75l-1.3125,-0.25l0.125,1.34375c0.37891,3.6875 1.17969,6.69141 2.4375,9.59375l0.25,0.625h0.65625l13.3125,-0.03125h1.71875v0.03125h28.75l0.25,-0.59375c1.32422,-2.87891 2.17969,-5.98828 2.625,-9.59375l0.15625,-1.3125l-1.3125,0.21875c-7.16016,1.08594 -12.84766,4.19922 -16.75,9.6875l-0.84375,1.1875l0.03125,-0.53125c0.35156,-7.39062 -1.66016,-14.74219 -5.75,-19.21875zM24.8125,9.3125c2.89063,3.80859 4.54297,9.60547 4.4375,15.6875h-8.875c-0.02734,-5.95703 1.59375,-11.79687 4.4375,-15.6875zM2.25,18.03125c5.17188,1.14453 9.24219,3.31641 12.25,6.9375l-10.4375,0.03125c-0.86719,-2.125 -1.44141,-4.39844 -1.8125,-6.96875zM47.71875,18.03125c-0.41797,2.55078 -1.02344,4.86328 -1.9375,6.96875h-10.65625c3.17969,-3.66406 7.33203,-5.91797 12.59375,-6.96875zM3.5,29.5625c0.37891,0.82422 1,1.85547 1.53125,2.59375l39.65625,-0.03125c0.57813,-0.80859 1.13281,-1.64062 1.53125,-2.5625zM6.875,34.78125c0.82031,1.08594 1.53906,1.52734 2.5625,2.34375h30.6875c0.86328,-0.67187 1.76172,-1.46484 2.5625,-2.34375zM12.6875,39.28125c2.62109,1.62109 5.69531,2.68359 9.1875,3.40625l-0.40625,-3.40625zM22.3125,39.28125c0.67578,1.40625 1.54688,2.58594 2.53125,3.71875c0.96875,-1.15234 1.62891,-2.33203 2.3125,-3.71875zM28.15625,39.28125l-0.53125,3.21875c3.50781,-0.64453 6.59766,-1.66406 9.28125,-3.21875z"></path></g></g></svg>